<?xml version="1.0" encoding="iso-8859-1"?>
<!-- Generator: Adobe Illustrator 19.0.0, SVG Export Plug-In . SVG Version: 6.00 Build 0)  -->
<svg version="1.1" id="Capa_1" xmlns="http://www.w3.org/2000/svg" xmlns:xlink="http://www.w3.org/1999/xlink" x="0px" y="0px"
	 viewBox="0 0 511.999 511.999" style="enable-background:new 0 0 511.999 511.999;" xml:space="preserve">
<path style="fill:#C30A5B;" d="M502.638,294.007v137.557c0,1.497-0.801,2.874-2.089,3.622l-119.135,68.784
	c-0.649,0.372-1.371,0.56-2.094,0.56s-1.445-0.189-2.094-0.56l-119.13-68.778c-1.293-0.749-2.094-2.131-2.094-3.628V294.007
	c0-0.749,0.199-1.466,0.56-2.094c0.361-0.628,0.879-1.157,1.529-1.529L377.226,221.6c1.298-0.749,2.89-0.749,4.188,0l119.135,68.784
	c0.644,0.377,1.167,0.906,1.529,1.529C502.439,292.542,502.638,293.259,502.638,294.007z"/>
<path style="fill:#FF318E;" d="M379.321,221.041c0.722,0,1.445,0.189,2.094,0.56l119.135,68.784
	c1.288,0.749,2.089,2.125,2.089,3.622v137.557c0,1.497-0.801,2.874-2.089,3.622l-119.135,68.784c-0.649,0.372-1.371,0.56-2.094,0.56
	"/>
<path style="fill:#FF73AF;" d="M502.078,291.914l-120.663,69.663c-1.298,0.749-2.89,0.749-4.188,0l-120.663-69.663
	c0.361-0.628,0.879-1.157,1.529-1.529l119.135-68.784c1.298-0.749,2.89-0.749,4.188,0l119.135,68.784
	C501.194,290.762,501.717,291.291,502.078,291.914z"/>
<path style="fill:#0064BF;" d="M255.996,294.007v137.557c0,1.497-0.801,2.874-2.089,3.622l-119.135,68.784
	c-0.649,0.372-1.371,0.56-2.094,0.56c-0.722,0-1.445-0.189-2.094-0.56L11.454,435.193c-1.293-0.749-2.094-2.131-2.094-3.628V294.007
	c0-0.749,0.199-1.466,0.56-2.094c0.361-0.628,0.879-1.157,1.529-1.529L130.584,221.6c1.298-0.749,2.89-0.749,4.188,0l119.135,68.784
	c0.644,0.377,1.167,0.906,1.529,1.529C255.797,292.542,255.996,293.259,255.996,294.007z"/>
<path style="fill:#0085E0;" d="M255.996,294.007v137.557c0,1.497-0.801,2.874-2.089,3.622l-119.135,68.784
	c-0.649,0.372-1.371,0.56-2.094,0.56v-283.49c0.722,0,1.445,0.189,2.094,0.56l119.135,68.784
	C255.195,291.134,255.996,292.51,255.996,294.007z"/>
<path style="fill:#60DEFC;" d="M255.436,291.914l-120.663,69.663c-1.298,0.749-2.89,0.749-4.188,0L9.92,291.914
	c0.361-0.628,0.879-1.157,1.529-1.529l119.135-68.784c1.298-0.749,2.89-0.749,4.188,0l119.135,68.784
	C254.551,290.762,255.075,291.291,255.436,291.914z"/>
<path style="fill:#08B2A5;" d="M379.317,80.462V218.02c0,1.497-0.801,2.874-2.089,3.622l-119.135,68.784
	c-0.649,0.372-1.371,0.56-2.094,0.56c-0.723,0-1.445-0.189-2.094-0.56l-119.13-68.778c-1.293-0.749-2.094-2.131-2.094-3.628V80.462
	c0-0.749,0.199-1.466,0.56-2.094s0.879-1.157,1.529-1.529L253.905,8.056c1.298-0.749,2.89-0.749,4.188,0L377.229,76.84
	c0.644,0.377,1.167,0.906,1.529,1.529C379.118,78.996,379.317,79.713,379.317,80.462z"/>
<path style="fill:#47DDD9;" d="M379.317,80.462V218.02c0,1.497-0.801,2.874-2.089,3.622l-119.135,68.784
	c-0.649,0.372-1.371,0.56-2.094,0.56V7.495c0.722,0,1.445,0.189,2.094,0.56l119.135,68.784
	C378.516,77.588,379.317,78.964,379.317,80.462z"/>
<path style="fill:#CCFEFB;" d="M378.757,78.368l-120.663,69.663c-1.298,0.749-2.89,0.749-4.188,0L133.243,78.368
	c0.361-0.628,0.879-1.157,1.529-1.529L253.905,8.056c1.298-0.749,2.89-0.749,4.188,0L377.229,76.84
	C377.872,77.216,378.396,77.745,378.757,78.368z"/>
<path d="M508.978,288.988c-0.901-2.119-2.721-3.956-4.679-5.098l-44.846-25.894c-3.586-2.071-8.175-0.843-10.246,2.745
	c-2.071,3.587-0.842,8.175,2.745,10.246l35.685,20.604l-108.316,62.536l-108.315-62.535l108.315-62.537l41.986,24.241
	c3.588,2.069,8.175,0.842,10.246-2.745c2.071-3.587,0.842-8.175-2.745-10.246l-41.99-24.244V80.462
	c0-4.138-2.277-8.033-5.839-10.119L261.843,1.56c-3.604-2.08-8.082-2.079-11.688,0.001l-119.113,68.77
	c-3.558,2.037-5.86,6.033-5.86,10.132v61.453c0,4.143,3.357,7.501,7.501,7.501s7.501-3.357,7.501-7.501v-50.88L248.5,153.571
	v125.031l-108.317-62.538v-39.969c0-4.143-3.357-7.501-7.501-7.501s-7.501,3.357-7.501,7.501v39.965L7.723,283.875
	c-3.58,2.05-5.863,6.008-5.863,10.133v137.557c0,4.158,2.237,8.036,5.845,10.123l119.151,68.791
	c3.553,2.035,8.117,2.024,11.667-0.013l69.736-40.263c3.587-2.071,4.816-6.658,2.745-10.246c-2.072-3.588-6.659-4.814-10.246-2.745
	l-60.579,34.977V367.117l108.324-62.54v125.069l-17.1,9.874c-3.587,2.071-4.816,6.658-2.745,10.246
	c1.39,2.406,3.91,3.751,6.502,3.751c1.272,0,2.563-0.324,3.743-1.006l17.094-9.87l117.497,67.835
	c3.554,2.039,8.119,2.025,11.671-0.01l119.151-68.793c3.592-2.086,5.823-5.959,5.823-10.108V294.007
	C510.139,292.273,509.728,290.565,508.978,288.988C508.86,288.709,509.728,290.565,508.978,288.988z M132.677,354.126
	L24.362,291.591l108.315-62.537l108.316,62.537L132.677,354.126z M263.5,153.57l108.317-62.536v125.03L263.5,278.602V153.57z
	 M256,15.508l108.316,62.537L256,140.579L147.685,78.044L256,15.508z M16.861,304.581l108.317,62.536v125.072L16.861,429.652
	V304.581z M263.504,304.581l108.317,62.536v125.072l-108.317-62.536V304.581z M386.821,492.188V367.117l108.317-62.536v125.068
	L386.821,492.188z"/>
<path d="M356.79,197.471c-4.143,0-7.501,3.357-7.501,7.501v0.563c0,4.143,3.357,7.501,7.501,7.501s7.501-3.357,7.501-7.501v-0.563
	C364.291,200.828,360.933,197.471,356.79,197.471z"/>
<path d="M356.79,175.694c-4.143,0-7.501,3.357-7.501,7.501v0.564c0,4.143,3.357,7.501,7.501,7.501s7.501-3.357,7.501-7.501v-0.564
	C364.291,179.051,360.933,175.694,356.79,175.694z"/>
<path d="M356.79,153.916c-4.143,0-7.501,3.357-7.501,7.501v0.563c0,4.143,3.357,7.501,7.501,7.501s7.501-3.357,7.501-7.501v-0.563
	C364.291,157.274,360.933,153.916,356.79,153.916z"/>
<g>
</g>
<g>
</g>
<g>
</g>
<g>
</g>
<g>
</g>
<g>
</g>
<g>
</g>
<g>
</g>
<g>
</g>
<g>
</g>
<g>
</g>
<g>
</g>
<g>
</g>
<g>
</g>
<g>
</g>
</svg>
