<svg height="512pt" viewBox="-12 0 512 512" width="512pt" xmlns="http://www.w3.org/2000/svg"><path d="m0 27.273438v457.453124c0 15.0625 12.210938 27.273438 27.273438 27.273438h348.226562c15.0625 0 27.273438-12.210938 27.273438-27.273438v-364.453124l-120.273438-120.273438h-255.226562c-15.0625 0-27.273438 12.210938-27.273438 27.273438zm0 0" fill="#ebeef2"/><path d="m308.765625 26.265625v113.058594c0 11.382812 9.226563 20.609375 20.605469 20.609375h19.148437v352.066406h26.980469c15.0625 0 27.273438-12.210938 27.273438-27.273438v-364.453124zm0 0" fill="#d0d0e0"/><path d="m282.5 0 120.273438 120.273438h-99.667969c-11.378907 0-20.605469-9.226563-20.605469-20.605469zm0 0" fill="#fd7b68"/><path d="m420.339844 274.390625h-146.273438v-27.21875c0-18.113281 14.683594-32.796875 32.796875-32.796875h80.679688c18.113281 0 32.796875 14.683594 32.796875 32.796875zm0 0" fill="#50b15d"/><path d="m414.5625 511.785156h-134.71875c-16.628906 0-30.378906-12.945312-31.378906-29.542968l-13.65625-226.261719h224.789062l-13.65625 226.261719c-1 16.597656-14.75 29.542968-31.378906 29.542968zm0 0" fill="#6f7587"/><path d="m408.578125 255.980469-15.433594 255.804687h21.421875c16.625 0 30.375-12.945312 31.378906-29.542968l13.652344-226.265626h-51.019531zm0 0" fill="#474d68"/><path d="m468.925781 285.871094h-243.445312c-10.953125 0-19.828125-8.875-19.828125-19.828125 0-10.949219 8.875-19.828125 19.828125-19.828125h243.445312c10.953125 0 19.828125 8.878906 19.828125 19.828125.003906 10.953125-8.875 19.828125-19.828125 19.828125zm0 0" fill="#a0d37d"/><path d="m468.925781 246.214844h-34.421875v39.65625h34.421875c10.953125 0 19.828125-8.875 19.828125-19.828125.003906-10.949219-8.875-19.828125-19.828125-19.828125zm0 0" fill="#50b15d"/><g fill="#d0d0e0"><path d="m293.171875 477.644531c-4.097656 0-7.511719-3.21875-7.710937-7.355469l-7.351563-152.453124c-.203125-4.265626 3.082031-7.886719 7.34375-8.089844 4.289063-.199219 7.886719 3.082031 8.09375 7.34375l7.347656 152.453125c.207031 4.265625-3.082031 7.886719-7.34375 8.089843-.128906.007813-.253906.011719-.378906.011719zm0 0"/><path d="m329.191406 477.644531c-4.207031 0-7.65625-3.378906-7.722656-7.605469l-2.449219-152.453124c-.070312-4.265626 3.335938-7.78125 7.601563-7.847657 4.285156-.039062 7.78125 3.335938 7.847656 7.601563l2.453125 152.453125c.066406 4.265625-3.335937 7.78125-7.601563 7.847656-.042968 0-.085937.003906-.128906.003906zm0 0"/><path d="m365.214844 477.644531c-.042969 0-.085938 0-.125-.003906-4.269532-.066406-7.671875-3.582031-7.605469-7.847656l2.453125-152.453125c.066406-4.269532 3.5625-7.667969 7.847656-7.601563 4.265625.066407 7.667969 3.582031 7.601563 7.847657l-2.449219 152.453124c-.066406 4.226563-3.515625 7.605469-7.722656 7.605469zm0 0"/><path d="m401.234375 477.644531c-.125 0-.25-.003906-.375-.011719-4.261719-.203124-7.550781-3.824218-7.347656-8.089843l7.351562-152.453125c.207031-4.261719 3.84375-7.535156 8.089844-7.34375 4.261719.203125 7.550781 3.824218 7.34375 8.089844l-7.347656 152.453124c-.203125 4.136719-3.617188 7.355469-7.714844 7.355469zm0 0"/></g><path d="m205.652344 77.132812h-155.6875c-4.269532 0-7.726563-3.457031-7.726563-7.726562 0-4.265625 3.457031-7.722656 7.726563-7.722656h155.6875c4.265625 0 7.726562 3.457031 7.726562 7.722656 0 4.269531-3.460937 7.726562-7.726562 7.726562zm0 0" fill="#6f7587"/><path d="m205.652344 128h-155.6875c-4.269532 0-7.726563-3.460938-7.726563-7.726562 0-4.265626 3.457031-7.726563 7.726563-7.726563h155.6875c4.265625 0 7.726562 3.460937 7.726562 7.726563 0 4.265624-3.460937 7.726562-7.726562 7.726562zm0 0" fill="#6f7587"/></svg>