<svg height="512pt" viewBox="0 -42 512.00102 512" width="512pt" xmlns="http://www.w3.org/2000/svg"><path d="m434.917969 282.789062v114.355469h-319.550781v-222.5625h303.136718c9.066406 0 16.414063 7.347657 16.414063 16.414063zm0 0" fill="#e6e6e6"/><path d="m189.0625 174.582031h-73.695312v222.5625h73.695312zm0 0" fill="#dbdbdb"/><path d="m409.394531 284.636719v77.097656c0 3.769531-3.054687 6.824219-6.820312 6.824219h-287.207031v-168.453125h294.027343zm0 0" fill="#76b1cb"/><path d="m409.394531 284.636719v-23.257813c-3.101562.355469-6.277343.464844-9.507812.300782-29.066407-1.480469-52.628907-25.042969-54.109375-54.109376-.128906-2.523437-.09375-5.019531.097656-7.464843h-35.777344c-.097656 2.023437-.152344 4.0625-.117187 6.121093.871093 49.757813 41.492187 90.382813 91.253906 91.25 2.75.046876 5.46875-.03125 8.160156-.21875zm0 0" fill="#5ba1ba"/><path d="m189.0625 368.558594v-168.453125h-73.695312v168.453125zm0 0" fill="#5ba1ba"/><path d="m470.652344 398.703125v10.109375c0 10.472656-8.488282 18.960938-18.960938 18.960938h-336.324218v-33.691407h350.660156c2.554687 0 4.625 2.070313 4.625 4.621094zm0 0" fill="#a6a6a6"/><path d="m155.183594 155.070312v256.480469c0 8.964844-7.261719 16.222657-16.222656 16.222657h-122.738282c-8.964844 0-16.222656-7.257813-16.222656-16.222657v-256.480469c0-8.964843 7.257812-16.222656 16.222656-16.222656h122.738282c8.960937 0 16.222656 7.257813 16.222656 16.222656zm0 0" fill="#254f5d"/><path d="m0 184.054688h155.183594v193.691406h-155.183594zm0 0" fill="#75dbad"/><path d="m25.523438 227.320312v-43.265624h-25.523438v193.691406h155.183594v-20.765625c-71.609375 0-129.660156-58.050781-129.660156-129.660157zm0 0" fill="#15ce71"/><path d="m506.496094 173.140625c.378906 1.796875-1 3.480469-2.828125 3.480469h-30.914063c-1.246094 0-2.355468-.792969-2.734375-1.980469-5.605469-17.652344-19.542969-31.597656-37.203125-37.191406-1.183594-.378907-1.980468-1.5-1.980468-2.746094v-30.925781c0-1.835938 1.683593-3.203125 3.480468-2.835938 36.222656 7.441406 64.738282 35.976563 72.179688 72.199219zm0 0" fill="#fe6c56"/><path d="m475.964844 121.40625-22.597656 27.703125c3.894531 3.445313 7.296874 7.421875 10.136718 11.804687l23.277344-28.539062c-3.300781-3.945312-6.914062-7.617188-10.816406-10.96875zm0 0" fill="#e24333"/><path d="m88.3125 403.269531c0 5.921875-4.800781 10.722657-10.722656 10.722657-5.917969 0-10.71875-4.800782-10.71875-10.722657 0-5.917969 4.800781-10.71875 10.71875-10.71875 5.921875 0 10.722656 4.800781 10.722656 10.71875zm0 0" fill="#0c3742"/><g fill="#87e5e8"><path d="m374.535156 250.511719c-1.699218 0-3.414062-.5625-4.835937-1.722657-3.273438-2.671874-3.765625-7.496093-1.09375-10.773437l129.804687-159.136719c2.046875-2.511718 5.449219-3.460937 8.503906-2.375 3.050782 1.085938 5.085938 3.976563 5.085938 7.210938v30.628906c0 4.230469-3.425781 7.65625-7.65625 7.65625-4.226562 0-7.65625-3.425781-7.65625-7.65625v-9.125l-116.214844 142.476562c-1.511718 1.855469-3.714844 2.816407-5.9375 2.816407zm0 0"/><path d="m314.445312 324.148438c-1.160156 0-2.328124-.265626-3.421874-.808594l-105.945313-52.972656-14.566406 11.332031c-3.339844 2.59375-8.148438 1.992187-10.742188-1.34375-2.597656-3.339844-1.996093-8.148438 1.339844-10.746094l18.378906-14.292969c2.328125-1.808594 5.484375-2.121094 8.125-.804687l104.777344 52.390625 43.035156-52.738282c2.675781-3.277343 7.496094-3.765624 10.773438-1.089843 3.277343 2.671875 3.765625 7.496093 1.09375 10.773437l-46.914063 57.484375c-1.492187 1.832031-3.691406 2.816407-5.933594 2.816407zm0 0"/><path d="m119.960938 334.867188c-1.804688 0-3.605469-.632813-5.042969-1.894532l-44.421875-38.867187-28.242188 20.382812c-3.425781 2.476563-8.214844 1.703125-10.6875-1.726562-2.476562-3.429688-1.703125-8.214844 1.726563-10.691407l33.179687-23.945312c2.890625-2.089844 6.839844-1.902344 9.523438.445312l44.238281 38.707032 19.753906-15.445313c3.332031-2.605469 8.144531-2.015625 10.75 1.316407 2.605469 3.332031 2.015625 8.144531-1.316406 10.746093l-24.746094 19.347657c-1.386719 1.085937-3.054687 1.625-4.714843 1.625zm0 0"/><path d="m504.34375 91.375h-28.585938c-4.230468 0-7.65625-3.429688-7.65625-7.65625 0-4.230469 3.425782-7.660156 7.65625-7.660156h28.585938c4.226562 0 7.65625 3.429687 7.65625 7.660156 0 4.226562-3.429688 7.65625-7.65625 7.65625zm0 0"/></g><path d="m50.027344 309.34375c0 6.765625-5.488282 12.253906-12.253906 12.253906-6.765626 0-12.25-5.488281-12.25-12.253906s5.484374-12.25 12.25-12.25c6.765624 0 12.253906 5.484375 12.253906 12.25zm0 0" fill="#f3c957"/><path d="m223.820312 182.238281c-4.226562 0-7.65625-3.429687-7.65625-7.65625v-114.296875c0-4.226562 3.429688-7.65625 7.65625-7.65625 4.230469 0 7.660157 3.429688 7.660157 7.65625v114.296875c0 4.226563-3.429688 7.65625-7.660157 7.65625zm0 0" fill="#87e5e8"/><path d="m286.675781 182.238281c-4.226562 0-7.65625-3.429687-7.65625-7.65625v-39.816406c0-4.230469 3.429688-7.660156 7.65625-7.660156 4.230469 0 7.65625 3.429687 7.65625 7.660156v39.816406c0 4.226563-3.425781 7.65625-7.65625 7.65625zm0 0" fill="#87e5e8"/><path d="m285.863281 107.710938c-4.230469 0-7.65625-3.429688-7.65625-7.660157v-77.175781c0-4.226562 3.425781-7.65625 7.65625-7.65625 4.226563 0 7.65625 3.429688 7.65625 7.65625v77.175781c0 4.230469-3.429687 7.660157-7.65625 7.660157zm0 0" fill="#87e5e8"/><path d="m304.238281 8.128906v20.5c0 4.492188-3.632812 8.125-8.125 8.125h-20.5c-4.492187 0-8.128906-3.632812-8.128906-8.125v-20.5c0-4.492187 3.636719-8.128906 8.128906-8.128906h20.5c4.492188 0 8.125 3.636719 8.125 8.128906zm0 0" fill="#75dbad"/><path d="m241.960938 47.945312v20.5c0 4.492188-3.632813 8.125-8.125 8.125h-20.5c-4.492188 0-8.128907-3.632812-8.128907-8.125v-20.5c0-4.492187 3.636719-8.128906 8.128907-8.128906h20.5c4.492187 0 8.125 3.636719 8.125 8.128906zm0 0" fill="#75dbad"/><path d="m503.679688 207.25c1.835937 0 3.207031 1.683594 2.835937 3.480469-8.796875 42.820312-47.042969 74.886719-92.636719 74.101562-49.761718-.867187-90.382812-41.492187-91.253906-91.25-.785156-45.597656 31.292969-83.839843 74.101562-92.640625 1.796876-.367187 3.480469 1 3.480469 2.835938v30.925781c0 1.234375-.785156 2.359375-1.96875 2.734375-24.023437 7.617188-41.175781 30.648438-39.816406 57.492188 1.480469 29.0625 25.042969 52.628906 54.109375 54.109374 26.839844 1.355469 49.871094-15.796874 57.488281-39.816406.378907-1.1875 1.5-1.972656 2.734375-1.972656zm0 0" fill="#f3c957"/></svg>