<svg height="511pt" viewBox="1 -7 511.999 511" width="511pt" xmlns="http://www.w3.org/2000/svg"><path d="m281.148438 191.285156h-180.164063c-17.660156 0-32.027344-14.367187-32.027344-32.023437 0-4.269531 3.460938-7.726563 7.726563-7.726563s7.726562 3.457032 7.726562 7.726563c0 9.136719 7.433594 16.570312 16.570313 16.570312h180.167969c9.140624 0 16.574218-7.433593 16.574218-16.570312v-20.492188c0-4.265625 3.457032-7.726562 7.726563-7.726562 4.265625 0 7.726562 3.460937 7.726562 7.726562v20.492188c0 17.65625-14.367187 32.023437-32.027343 32.023437zm0 0" fill="#43a3f9"/><path d="m206.78125 421.871094h-112.597656c-5.691406 0-10.300782-4.613282-10.300782-10.300782v-112.597656c0-5.6875 4.609376-10.300781 10.300782-10.300781h112.597656c5.6875 0 10.300781 4.613281 10.300781 10.300781v112.597656c0 5.6875-4.613281 10.300782-10.300781 10.300782zm0 0" fill="#fdb659"/><path d="m217.085938 298.972656v112.601563c0 5.683593-4.617188 10.300781-10.304688 10.300781h-16.996094c5.6875 0 10.300782-4.617188 10.300782-10.300781v-112.601563c0-5.6875-4.613282-10.300781-10.300782-10.300781h16.996094c5.6875 0 10.304688 4.617187 10.304688 10.300781zm0 0" fill="#fd9e28"/><path d="m181.808594 394.628906h-17.496094c-5.6875 0-10.300781-4.613281-10.300781-10.304687v-6.359375c0-5.691406 4.613281-10.304688 10.300781-10.304688h17.496094c5.6875 0 10.300781 4.613282 10.300781 10.304688v6.359375c0 5.691406-4.613281 10.304687-10.300781 10.304687zm0 0" fill="#43a3f9"/><path d="m160.183594 328.675781h-19.402344c-5.691406 0-10.300781-4.609375-10.300781-10.300781v-29.703125h40.003906v29.703125c0 5.691406-4.613281 10.300781-10.300781 10.300781zm0 0" fill="#fedfc5"/><path d="m473.308594 497.585938h-434.617188c-21.367187 0-38.691406-17.320313-38.691406-38.691407 0-21.367187 17.324219-38.691406 38.691406-38.691406h434.617188c21.367187 0 38.691406 17.324219 38.691406 38.691406 0 21.371094-17.324219 38.691407-38.691406 38.691407zm0 0" fill="#4e7693"/><path d="m463.769531 466.621094h-415.539062c-4.265625 0-7.722657-3.457032-7.722657-7.726563 0-4.265625 3.457032-7.726562 7.722657-7.726562h415.539062c4.265625 0 7.726563 3.460937 7.726563 7.726562 0 4.269531-3.460938 7.726563-7.726563 7.726563zm0 0" fill="#e3f4ff"/><path d="m70.492188 477.238281c-4.265626 0-7.726563-3.457031-7.726563-7.726562v-21.234375c0-4.265625 3.460937-7.726563 7.726563-7.726563 4.269531 0 7.726562 3.460938 7.726562 7.726563v21.234375c0 4.269531-3.457031 7.726562-7.726562 7.726562zm0 0" fill="#9cc6db"/><path d="m441.507812 477.238281c-4.269531 0-7.726562-3.457031-7.726562-7.726562v-21.234375c0-4.265625 3.457031-7.726563 7.726562-7.726563 4.265626 0 7.726563 3.460938 7.726563 7.726563v21.234375c0 4.269531-3.460937 7.726562-7.726563 7.726562zm0 0" fill="#9cc6db"/><path d="m44.125 30.316406h43.84375v79.382813h-43.84375zm0 0" fill="#618baa"/><g fill="#4e7693"><path d="m44.125 30.316406h43.84375v44.726563h-43.84375zm0 0"/><path d="m402.476562 223.234375c-4.265624 0-7.726562-3.457031-7.726562-7.726563v-75.109374c0-4.269532 3.460938-7.726563 7.726562-7.726563 4.265626 0 7.726563 3.457031 7.726563 7.726563v75.109374c0 4.269532-3.460937 7.726563-7.726563 7.726563zm0 0"/><path d="m367.984375 223.234375c-4.269531 0-7.726563-3.457031-7.726563-7.726563v-75.109374c0-4.269532 3.460938-7.726563 7.726563-7.726563 4.269531 0 7.726563 3.457031 7.726563 7.726563v75.109374c0 4.269532-3.460938 7.726563-7.726563 7.726563zm0 0"/></g><path d="m384.710938 215.511719v48.769531h-46.382813c-5.726563 0-10.371094 4.644531-10.371094 10.375v56.125c0 5.6875-4.613281 10.300781-10.304687 10.300781h-22.363282c-5.726562 0-10.375-4.644531-10.375-10.375v-67.867187c0-2.75 1.09375-5.390625 3.039063-7.335938l36.964844-36.960937c1.945312-1.9375 4.585937-3.03125 7.335937-3.03125zm0 0" fill="#bddff4"/><path d="m484.503906 262.839844v67.867187c0 5.730469-4.644531 10.375-10.375 10.375h-22.363281c-5.691406 0-10.304687-4.613281-10.304687-10.300781v-56.125c0-5.730469-4.644532-10.375-10.371094-10.375h-46.378906v-48.769531h52.464843c2.75 0 5.386719 1.09375 7.335938 3.03125l36.953125 36.960937c1.945312 1.949219 3.039062 4.585938 3.039062 7.335938zm0 0" fill="#9cc6db"/><path d="m405.84375 247.558594c-4.265625 0-7.773438-3.457032-7.773438-7.722656 0-4.269532 3.410157-7.726563 7.675782-7.726563h.097656c4.269531 0 7.726562 3.457031 7.726562 7.726563 0 4.265624-3.457031 7.722656-7.726562 7.722656zm0 0" fill="#618baa"/><path d="m362.972656 247.558594c-4.269531 0-7.777344-3.457032-7.777344-7.722656 0-4.269532 3.410157-7.726563 7.679688-7.726563h.097656c4.265625 0 7.722656 3.457031 7.722656 7.726563 0 4.265624-3.457031 7.722656-7.722656 7.722656zm0 0" fill="#618baa"/><path d="m252.15625 90.886719c7.242188 0 13.734375 3.210937 18.132812 8.285156 4.019532 4.636719 9.980469 7.121094 16.117188 7.121094h96.667969v34.535156h-96.667969c-6.136719 0-12.097656 2.488281-16.117188 7.125-4.398437 5.074219-10.890624 8.28125-18.132812 8.28125h-168.535156v-65.347656zm0 0" fill="#e3f4ff"/><path d="m116.503906 123.5625c0 21.992188-17.828125 39.820312-39.820312 39.820312-21.992188 0-39.820313-17.828124-39.820313-39.820312s17.828125-39.820312 39.820313-39.820312c21.992187 0 39.820312 17.828124 39.820312 39.820312zm0 0" fill="#fd9e28"/><path d="m116.496094 123.5625c0 21.988281-17.816406 39.820312-39.808594 39.820312-3.804688 0-7.488281-.53125-10.964844-1.535156 16.660156-4.75 28.859375-20.101562 28.859375-38.285156s-12.199219-33.535156-28.855469-38.285156c3.472657-1.007813 7.15625-1.535156 10.960938-1.535156 21.992188 0 39.808594 17.832031 39.808594 39.820312zm0 0" fill="#fd8724"/><path d="m419.066406 123.5625c0 18.976562-15.382812 34.359375-34.355468 34.359375-18.976563 0-34.359376-15.382813-34.359376-34.359375s15.382813-34.359375 34.359376-34.359375c18.972656 0 34.355468 15.382813 34.355468 34.359375zm0 0" fill="#fd9e28"/><path d="m419.070312 123.5625c0 18.972656-15.382812 34.355469-34.363281 34.355469-4.390625 0-8.578125-.820313-12.4375-2.324219 12.820313-4.988281 21.90625-17.445312 21.90625-32.03125s-9.085937-27.039062-21.90625-32.03125c3.859375-1.503906 8.046875-2.324219 12.4375-2.324219 18.980469 0 34.363281 15.382813 34.363281 34.355469zm0 0" fill="#fd8724"/><path d="m179.148438 91.714844c-4.265626 0-7.726563-3.460938-7.726563-7.726563v-33.605469c0-12.101562-9.84375-21.945312-21.941406-21.945312h-2.09375c-4.269531 0-7.726563-3.457031-7.726563-7.726562 0-4.265626 3.457032-7.722657 7.726563-7.722657h2.09375c20.617187 0 37.394531 16.773438 37.394531 37.394531v33.605469c0 4.265625-3.460938 7.726563-7.726562 7.726563zm0 0" fill="#43a3f9"/><path d="m130.902344 58.902344h-104.550782c-11.378906 0-20.605468-9.222656-20.605468-20.601563v-27.5c0-5.6875 4.613281-10.300781 10.304687-10.300781h125.152344c5.691406 0 10.304687 4.613281 10.304687 10.300781v27.5c0 11.378907-9.226562 20.601563-20.605468 20.601563zm0 0" fill="#e3f4ff"/><path d="m141.207031.503906c5.691407 0 10.300781 4.609375 10.300781 10.300782v27.496093c0 11.382813-9.230468 20.605469-20.601562 20.605469h-19.265625c11.382813 0 20.605469-9.222656 20.605469-20.605469v-37.796875zm0 0" fill="#bddff4"/><path d="m223.046875 110.417969h-55.640625c-5.691406 0-10.304688-4.613281-10.304688-10.304688v-20.949219c0-5.691406 4.613282-10.300781 10.304688-10.300781h55.640625c5.6875 0 10.300781 4.609375 10.300781 10.300781v20.949219c0 5.691407-4.613281 10.304688-10.300781 10.304688zm0 0" fill="#fd9e28"/><path d="m233.347656 79.160156v20.953125c0 5.6875-4.617187 10.304688-10.304687 10.304688h-20.601563c5.6875 0 10.300782-4.617188 10.300782-10.304688v-20.953125c0-5.6875-4.613282-10.300781-10.300782-10.300781h20.601563c5.6875 0 10.304687 4.613281 10.304687 10.300781zm0 0" fill="#fd8724"/><path d="m163.332031 141.835938c-4.265625 0-7.773437-3.457032-7.773437-7.722657 0-4.269531 3.410156-7.726562 7.675781-7.726562h.097656c4.265625 0 7.726563 3.457031 7.726563 7.726562 0 4.265625-3.460938 7.722657-7.726563 7.722657zm0 0" fill="#fd8724"/><path d="m181.828125 141.835938c-4.269531 0-7.777344-3.457032-7.777344-7.722657 0-4.269531 3.414063-7.726562 7.679688-7.726562h.097656c4.265625 0 7.726563 3.457031 7.726563 7.726562 0 4.265625-3.460938 7.722657-7.726563 7.722657zm0 0" fill="#fd8724"/><path d="m230.246094 141.835938h-25.238282c-4.269531 0-7.726562-3.457032-7.726562-7.722657 0-4.269531 3.457031-7.726562 7.726562-7.726562h25.238282c4.265625 0 7.726562 3.457031 7.726562 7.726562 0 4.265625-3.460937 7.722657-7.726562 7.722657zm0 0" fill="#fd9e28"/></svg>