<svg height="512pt" viewBox="0 -27 512 512" width="512pt" xmlns="http://www.w3.org/2000/svg"><path d="m320.867188 377.101562v64.582032c0 9.035156-6.46875 16.371094-14.457032 16.371094h-291.957031c-7.984375 0-14.453125-7.335938-14.453125-16.371094v-425.3125c0-9.035156 6.46875-16.371094 14.453125-16.371094h291.957031c7.988282 0 14.457032 7.335938 14.457032 16.371094zm0 0" fill="#254f5d"/><path d="m295.074219 377.101562v48.042969c0 2.035157-1.648438 3.683594-3.683594 3.683594h-261.917969c-2.03125 0-3.679687-1.648437-3.679687-3.683594v-392.234375c0-2.035156 1.648437-3.683594 3.679687-3.683594h261.917969c2.035156 0 3.683594 1.648438 3.683594 3.683594zm0 0" fill="#75dbad"/><path d="m295.074219 393.234375c-132.609375 0-240.109375-107.496094-240.109375-240.105469v-123.902344h-25.492188c-2.03125 0-3.679687 1.648438-3.679687 3.683594v392.234375c0 2.035157 1.648437 3.683594 3.679687 3.683594h261.917969c2.035156 0 3.683594-1.648437 3.683594-3.683594zm0 0" fill="#34d689"/><path d="m512 100.863281v256.328125c0 6.984375-5.675781 12.65625-12.660156 12.65625h-414.816406c-6.996094 0-12.660157-5.671875-12.660157-12.65625v-256.328125c0-6.984375 5.664063-12.65625 12.660157-12.65625h414.816406c6.984375 0 12.660156 5.671875 12.660156 12.65625zm0 0" fill="#e6e6e6"/><path d="m113.265625 88.207031h-28.742187c-6.996094 0-12.660157 5.671875-12.660157 12.65625v256.328125c0 6.984375 5.664063 12.65625 12.660157 12.65625h414.816406c6.992187 0 12.660156-5.667968 12.660156-12.65625v-30.671875l-245.863281-11.519531c-73.992188-3.464844-134.472657-60.238281-142.605469-133.867188zm0 0" fill="#d4d8d6"/><path d="m499.339844 88.207031h-414.816406c-6.996094 0-12.660157 5.671875-12.660157 12.65625v35.832031h440.136719v-35.832031c0-6.984375-5.675781-12.65625-12.660156-12.65625zm0 0" fill="#fe6c56"/><path d="m153.734375 269.957031c-1.132813 0-2.28125-.25-3.371094-.777343l-48.210937-23.390626c-3.847656-1.863281-5.449219-6.492187-3.585938-10.335937 1.867188-3.84375 6.496094-5.449219 10.339844-3.585937l48.210938 23.390624c3.847656 1.863282 5.449218 6.492188 3.585937 10.339844-1.339844 2.753906-4.097656 4.359375-6.96875 4.359375zm0 0" fill="#87e5e8"/><path d="m189.09375 245.050781v81.46875h-39.203125v-81.46875c0-3.4375 2.785156-6.222656 6.21875-6.222656h26.761719c3.433594 0 6.222656 2.785156 6.222656 6.222656zm0 0" fill="#f3c957"/><path d="m343.839844 251.238281v75.28125h-39.203125v-75.28125c0-3.433593 2.785156-6.21875 6.222656-6.21875h26.761719c3.433594 0 6.21875 2.785157 6.21875 6.21875zm0 0" fill="#fe6c56"/><path d="m113.265625 112.964844c0 5.414062-4.386719 9.800781-9.800781 9.800781-5.414063 0-9.800782-4.386719-9.800782-9.800781 0-5.410156 4.386719-9.800782 9.800782-9.800782 5.414062 0 9.800781 4.390626 9.800781 9.800782zm0 0" fill="#ed3426"/><path d="m151.4375 112.964844c0 5.414062-4.390625 9.800781-9.800781 9.800781-5.414063 0-9.800781-4.386719-9.800781-9.800781 0-5.410156 4.386718-9.800782 9.800781-9.800782 5.410156 0 9.800781 4.390626 9.800781 9.800782zm0 0" fill="#f3c957"/><path d="m189.609375 112.964844c0 5.414062-4.390625 9.800781-9.800781 9.800781-5.414063 0-9.800782-4.386719-9.800782-9.800781 0-5.410156 4.386719-9.800782 9.800782-9.800782 5.410156 0 9.800781 4.390626 9.800781 9.800782zm0 0" fill="#35c982"/><path d="m209.722656 297.117188c-1.148437 0-2.300781-.257813-3.375-.777344l-39.71875-19.269532c-3.84375-1.863281-5.449218-6.492187-3.585937-10.335937 1.867187-3.847656 6.496093-5.449219 10.339843-3.585937l35.390626 17.167968 20.976562-16.3125c3.371094-2.625 8.230469-2.015625 10.855469 1.355469 2.625 3.375 2.015625 8.234375-1.355469 10.859375l-24.777344 19.269531c-1.382812 1.074219-3.058594 1.628907-4.75 1.628907zm0 0" fill="#87e5e8"/><path d="m266.464844 225.449219v101.070312h-39.203125v-101.070312c0-3.4375 2.785156-6.222657 6.222656-6.222657h26.761719c3.433594 0 6.21875 2.785157 6.21875 6.222657zm0 0" fill="#fe942e"/><path d="m483.113281 201.171875h-29.917969c-4.273437 0-7.738281-3.464844-7.738281-7.738281 0-4.269532 3.464844-7.734375 7.738281-7.734375h29.917969c4.273438 0 7.738281 3.464843 7.738281 7.734375 0 4.273437-3.464843 7.738281-7.738281 7.738281zm0 0" fill="#87e5e8"/><path d="m246.871094 268.230469c-2.308594 0-4.589844-1.027344-6.113282-2.988281-2.625-3.375-2.015624-8.234376 1.355469-10.855469l74.28125-57.773438c2.773438-2.160156 6.65625-2.175781 9.449219-.039062l67.984375 51.996093c3.394531 2.59375 4.039063 7.453126 1.445313 10.84375-2.597657 3.394532-7.453126 4.042969-10.847657 1.445313l-63.242187-48.367187-69.570313 54.105468c-1.410156 1.101563-3.082031 1.632813-4.742187 1.632813zm0 0" fill="#87e5e8"/><path d="m421.214844 168.707031v157.8125h-39.203125v-157.8125c0-3.4375 2.785156-6.222656 6.21875-6.222656h26.761719c3.4375 0 6.222656 2.785156 6.222656 6.222656zm0 0" fill="#f74b39"/><path d="m401.617188 270.292969c-2.195313 0-4.375-.925781-5.90625-2.730469-2.761719-3.261719-2.363282-8.144531.898437-10.90625l81.5-69.121094c2.296875-1.949218 5.519531-2.386718 8.257813-1.121094 2.734374 1.265626 4.484374 4.007813 4.484374 7.019532v27.855468c0 4.273438-3.464843 7.738282-7.738281 7.738282-4.273437 0-7.738281-3.464844-7.738281-7.738282v-11.144531l-68.757812 58.3125c-1.453126 1.234375-3.230469 1.835938-5 1.835938zm0 0" fill="#87e5e8"/><path d="m467.640625 334.257812h-352.828125c-4.273438 0-7.738281-3.464843-7.738281-7.738281 0-4.273437 3.464843-7.738281 7.738281-7.738281h352.828125c4.269531 0 7.734375 3.464844 7.734375 7.738281 0 4.273438-3.464844 7.738281-7.734375 7.738281zm0 0" fill="#c8cecc"/></svg>