<svg height="512pt" viewBox="-16 0 512 512.00177" width="512pt" xmlns="http://www.w3.org/2000/svg"><path d="m471.152344 92.023438c0 37.429687-30.34375 67.773437-67.773438 67.773437-37.429687 0-67.773437-30.34375-67.773437-67.773437 0-37.429688 30.34375-67.773438 67.773437-67.773438 37.429688 0 67.773438 30.34375 67.773438 67.773438zm0 0" fill="#ffe183"/><path d="m356.210938 92.023438c0-33.929688 24.929687-62.035157 57.472656-66.996094-3.359375-.511719-6.800782-.777344-10.304688-.777344-37.429687 0-67.773437 30.34375-67.773437 67.773438 0 37.429687 30.34375 67.773437 67.773437 67.773437 3.503906 0 6.945313-.265625 10.304688-.777344-32.542969-4.964843-57.472656-33.066406-57.472656-66.996093zm0 0" fill="#ffc964"/><path d="m400.539062 131.769531c-13.53125 0-29.757812-9.046875-22.417968-19.371093 6.144531-8.609376 9.4375 4.214843 22.417968 5.785156v-22.820313c-8.429687-3.21875-16.042968-6.023437-20.238281-13.816406-3.726562-6.914063-5.101562-28.246094 20.238281-31.589844v-3.210937c0-1.722656 2.003907-2.867188 3.898438-2.867188 1.773438 0 3.898438 1.179688 3.898438 2.894532v3.011718c3.78125 0 8.636718.558594 12.613281 2.011719 11.464843 4.207031 5.917969 12.34375 3.667969 14.039063-4.160157 3.125-6.976563-2.632813-16.28125-3.382813v20.179687c12.835937 4.667969 21.671874 10.566407 21.671874 24.539063 0 14.589844-9.449218 22.417969-21.671874 24.308594v3.554687c0 1.691406-2.105469 2.867188-3.898438 2.867188-2.007812 0-3.898438-1.234375-3.898438-2.894532zm-8.253906-60.945312c0 4.425781 2.433594 6.597656 9.171875 9.289062v-17.3125c-4.9375.777344-9.171875 3.023438-9.171875 8.023438zm23.734375 37.839843c0-4.023437-1.46875-7.421874-8.601562-10.546874v19.949218c5.160156-1.09375 8.601562-4.097656 8.601562-9.402344zm0 0" fill="#f3a334"/><path d="m15.941406 324.097656c-3.40625 0-6.527344-2.269531-7.457031-5.71875-10.625-39.390625-11.273437-79.117187-1.921875-118.078125 8.769531-36.527343 26.429688-71.085937 51.070312-99.9375 24.621094-28.824219 55.949219-51.644531 90.605469-66 36.988281-15.320312 76.320313-20.886719 116.90625-16.550781 4.242188.453125 7.316407 4.261719 6.863281 8.507812-.453124 4.242188-4.265624 7.300782-8.503906 6.859376-74.636718-7.984376-145.390625 20.171874-194.121094 77.222656-48.777343 57.113281-65.539062 131.449218-45.976562 203.953125 1.109375 4.121093-1.328125 8.359375-5.449219 9.472656-.671875.179687-1.351562.269531-2.015625.269531zm0 0" fill="#72bdf6"/><path d="m240.375 495.226562c-8.007812 0-16.066406-.394531-24.183594-1.1875-4.25-.414062-7.355468-4.191406-6.941406-8.441406.414062-4.246094 4.1875-7.335937 8.441406-6.9375 74.28125 7.253906 144.585938-21.3125 192.855469-78.351562 48.167969-56.921875 64.632813-130.925782 45.183594-203.035156-1.113281-4.117188 1.324219-8.359376 5.445312-9.472657 4.117188-1.109375 8.363281 1.328125 9.472657 5.449219 10.589843 39.25 11.296874 78.800781 2.097656 117.558594-8.617188 36.296875-26.046875 70.699218-50.402344 99.480468-24.402344 28.839844-55.523438 51.773438-90.003906 66.324219-29.339844 12.378907-60.183594 18.613281-91.964844 18.613281zm0 0" fill="#72bdf6"/><path d="m380.28125 255.8125c0 77.714844-63 140.71875-140.714844 140.71875s-140.714844-63.003906-140.714844-140.71875c0-77.710938 63-140.714844 140.714844-140.714844s140.714844 63.003906 140.714844 140.714844zm0 0" fill="#4b98d4"/><path d="m127.546875 255.8125c0-72.867188 55.390625-132.800781 126.367187-139.988281-4.71875-.480469-9.503906-.726563-14.347656-.726563-77.714844 0-140.714844 63-140.714844 140.714844 0 77.71875 63 140.71875 140.714844 140.71875 4.84375 0 9.628906-.246094 14.347656-.726562-70.976562-7.1875-126.367187-67.121094-126.367187-139.992188zm0 0" fill="#2472b2"/><path d="m388.007812 255.8125c0-83.769531-69.324218-150.648438-152.4375-148.382812-80.257812 2.132812-144.445312 68.097656-144.445312 148.382812 0 82.105469 66.738281 148.441406 148.441406 148.441406 81.933594 0 148.441406-66.679687 148.441406-148.441406zm-281.199218 7.730469h37.847656c.675781 20.886719 4.101562 40.984375 9.972656 59.246093-6.75 4.707032-13.132812 9.984376-19.066406 15.804688-16.953125-21.257812-27.175781-47.304688-28.753906-75.050781zm28.753906-90.507813c5.933594 5.820313 12.316406 11.097656 19.066406 15.804688-5.871094 18.261718-9.296875 38.359375-9.972656 59.25h-37.847656c1.542968-27.144532 11.4375-53.34375 28.753906-75.054688zm197.6875-11.515625c-4.488281 4.449219-9.273438 8.550781-14.300781 12.285157-5.929688-14.03125-13.792969-27.5-23.828125-38.777344 14.640625 6.734375 27.335937 15.769531 38.128906 26.492187zm39.074219 86.566407h-37.847657c-.675781-20.886719-4.101562-40.984376-9.972656-59.246094 6.75-4.707032 13.132813-9.984375 19.066406-15.804688 16.625 20.84375 27.125 46.777344 28.753907 75.050782zm-28.753907 90.507812c-5.933593-5.820312-12.316406-11.097656-19.066406-15.804688 5.871094-18.261718 9.296875-38.359374 9.972656-59.25h37.847657c-1.546875 26.78125-11.164063 52.996094-28.753907 75.054688zm-48.449218 38.007812c10.015625-11.257812 17.886718-24.71875 23.828125-38.78125 5.027343 3.738282 9.8125 7.835938 14.300781 12.289063-10.796875 10.722656-23.527344 19.773437-38.128906 26.492187zm-149.238282-26.492187c4.492188-4.453125 9.273438-8.550781 14.300782-12.285156 5.929687 14.03125 13.796875 27.5 23.828125 38.777343-13.988281-6.433593-26.933594-15.355468-38.128907-26.492187zm27.460938-20.90625c17.769531-10.199219 37.792969-16.253906 58.496094-17.464844v76.429688c-28.007813-4.601563-47.828125-32.429688-58.496094-58.964844zm10.667969-194.175781c-10.035157 11.277344-17.898438 24.746094-23.828125 38.777344-5.027344-3.734376-9.808594-7.832032-14.300782-12.285157 11.15625-11.074219 23.949219-19.96875 38.128907-26.492187zm47.828125-11.566406v76.429687c-20.703125-1.210937-40.726563-7.265625-58.496094-17.464844 10.648438-26.480469 30.457031-54.355469 58.496094-58.964843zm73.949218 58.964843c-17.769531 10.199219-37.792968 16.253907-58.496093 17.464844v-76.429687c28.007812 4.601562 47.828125 32.429687 58.496093 58.964843zm-58.496093 81.117188h71.714843c-.613281 17.886719-3.363281 35.089843-8.050781 50.839843-19.457031-10.667968-41.210937-16.957031-63.664062-18.132812zm0-15.457031v-32.707032c22.453125-1.179687 44.207031-7.464844 63.664062-18.132812 4.6875 15.75 7.4375 32.953125 8.050781 50.839844zm-15.453125-32.707032v32.707032h-71.714844c.613281-17.886719 3.363281-35.089844 8.050781-50.839844 19.457031 10.667968 41.210938 16.953125 63.664063 18.132812zm0 48.164063v32.707031c-22.453125 1.179688-44.207032 7.464844-63.664063 18.132812-4.6875-15.75-7.4375-32.953124-8.050781-50.839843zm15.453125 48.195312c20.703125 1.210938 40.730469 7.265625 58.496093 17.464844-10.648437 26.480469-30.457031 54.359375-58.496093 58.964844zm0 0" fill="#72bdf6"/><path d="m260.789062 48.691406 7.117188-46.464844c.292969-1.925781 2.511719-2.867187 4.097656-1.742187l42.910156 30.347656c1.761719 1.246094 1.347657 3.96875-.707031 4.628907l-50.027343 16.121093c-1.851563.59375-3.683594-.964843-3.390626-2.890625zm0 0" fill="#4b98d4"/><path d="m220.46875 463.308594-7.113281 46.46875c-.296875 1.921875-2.511719 2.863281-4.101563 1.738281l-42.910156-30.347656c-1.761719-1.246094-1.34375-3.964844.707031-4.628907l50.027344-16.117187c1.851563-.597656 3.683594.960937 3.390625 2.886719zm0 0" fill="#4b98d4"/><path d="m286.710938 10.882812-14.707032-10.398437c-1.585937-1.125-3.804687-.183594-4.097656 1.738281l-7.117188 46.46875c-.292968 1.925782 1.539063 3.484375 3.390626 2.886719l17.144531-5.523437zm0 0" fill="#2472b2"/><path d="m186.472656 481.167969c-1.761718-1.246094-1.34375-3.964844.710938-4.628907l32.882812-10.59375.402344-2.636718c.292969-1.921875-1.539062-3.484375-3.390625-2.886719l-50.027344 16.117187c-2.050781.664063-2.46875 3.386719-.707031 4.632813l42.910156 30.347656c1.589844 1.121094 3.804688.183594 4.101563-1.742187l1.324219-8.660156zm0 0" fill="#2472b2"/><path d="m143.339844 419.605469c0 37.429687-30.34375 67.773437-67.773438 67.773437-37.429687 0-67.773437-30.34375-67.773437-67.773437 0-37.429688 30.34375-67.773438 67.773437-67.773438 37.429688 0 67.773438 30.34375 67.773438 67.773438zm0 0" fill="#ffe183"/><path d="m28.398438 419.605469c0-33.929688 24.929687-62.03125 57.472656-66.996094-3.359375-.511719-6.800782-.777344-10.304688-.777344-37.429687 0-67.773437 30.34375-67.773437 67.773438 0 37.429687 30.34375 67.773437 67.773437 67.773437 3.503906 0 6.945313-.265625 10.304688-.777344-32.542969-4.964843-57.472656-33.066406-57.472656-66.996093zm0 0" fill="#ffc964"/><path d="m72.726562 459.351562c-13.53125 0-29.757812-9.046874-22.417968-19.371093 6.144531-8.609375 9.4375 4.214843 22.417968 5.785156v-22.820313c-8.429687-3.21875-16.046874-6.019531-20.238281-13.816406-3.726562-6.914062-5.105469-28.246094 20.238281-31.589844v-3.210937c0-1.722656 2.003907-2.867187 3.898438-2.867187 1.773438 0 3.898438 1.179687 3.898438 2.894531v3.011719c3.78125 0 8.636718.558593 12.613281 2.011718 11.464843 4.207032 5.917969 12.34375 3.667969 14.039063-4.160157 3.128906-6.976563-2.628907-16.28125-3.382813v20.183594c12.835937 4.664062 21.671874 10.5625 21.671874 24.535156 0 14.589844-9.449218 22.421875-21.671874 24.308594v3.554688c0 1.691406-2.109376 2.867187-3.898438 2.867187-2.007812 0-3.898438-1.234375-3.898438-2.890625zm-8.257812-60.941406c0 4.421875 2.4375 6.59375 9.175781 9.285156v-17.3125c-4.9375.777344-9.175781 3.027344-9.175781 8.027344zm23.738281 37.835938c0-4.023438-1.464843-7.421875-8.601562-10.546875v19.953125c5.160156-1.09375 8.601562-4.101563 8.601562-9.40625zm0 0" fill="#f3a334"/></svg>